<?xml version="1.0" encoding="utf-8"?><svg viewBox="0 0 255 139" xmlns="http://www.w3.org/2000/svg" xmlns:xlink="http://www.w3.org/1999/xlink"><style>:root>svg{display:none}:root>svg:target{display:block}</style><svg fill="none" viewBox="0 0 255 139" id="2255" xmlns="http://www.w3.org/2000/svg"><path fill-rule="evenodd" clip-rule="evenodd" d="M0 0h108.887c7.627 0 13.826 6.134 13.956 13.729V26.06c0 7.725-6.264 13.956-13.956 13.956H15.351v9.315h93.536c7.724 0 13.956 6.264 13.956 13.956v1.395H0V38.622c0-7.725 6.264-13.956 13.956-13.956h93.535V15.35H13.956C6.23 15.351 0 9.087 0 1.396V0Z" fill="url(#aa)"/><path fill-rule="evenodd" clip-rule="evenodd" d="M132.157 0h108.887C248.769 0 255 6.264 255 13.956v12.073c0 7.724-6.264 13.956-13.956 13.956h-93.535v9.314h93.535c7.725 0 13.956 6.264 13.956 13.956v1.396H132.157V38.622c0-7.725 6.264-13.956 13.956-13.956h93.536v-9.315h-93.536c-7.724 0-13.956-6.263-13.956-13.955V0Z" fill="url(#ab)"/><path fill-rule="evenodd" clip-rule="evenodd" d="M0 138.648h108.887c7.627 0 13.826-6.134 13.956-13.728v-12.333c0-7.724-6.264-13.956-13.956-13.956H15.351v-9.314h93.536c7.724 0 13.956-6.264 13.956-13.956v-1.396H0v26.062c0 7.724 6.264 13.955 13.956 13.955h93.535v9.315H13.956C6.23 123.297 0 129.561 0 137.253v1.395Z" fill="url(#ac)"/><path fill-rule="evenodd" clip-rule="evenodd" d="M132.157 138.648h108.887c7.725 0 13.956-6.263 13.956-13.955V112.587c0-7.724-6.264-13.956-13.956-13.956h-93.535v-9.314h93.535c7.725 0 13.956-6.264 13.956-13.956v-1.396H132.157v26.062c0 7.724 6.264 13.955 13.956 13.955h93.536v9.315h-93.536c-7.724 0-13.956 6.264-13.956 13.956v1.395Z" fill="url(#ad)"/><defs><linearGradient id="aa" x1="-17.549" y1="17.689" x2="135.464" y2="-14.002" gradientUnits="userSpaceOnUse"><stop stop-color="#E2E6EE" stop-opacity=".7"/><stop offset="1" stop-color="#F2F6FE" stop-opacity=".4"/></linearGradient><linearGradient id="ab" x1="114.608" y1="17.68" x2="267.615" y2="-14.026" gradientUnits="userSpaceOnUse"><stop stop-color="#E2E6EE" stop-opacity=".7"/><stop offset="1" stop-color="#F2F6FE" stop-opacity=".4"/></linearGradient><linearGradient id="ac" x1="-17.549" y1="91.654" x2="135.464" y2="59.963" gradientUnits="userSpaceOnUse"><stop stop-color="#E2E6EE" stop-opacity=".7"/><stop offset="1" stop-color="#F2F6FE" stop-opacity=".4"/></linearGradient><linearGradient id="ad" x1="114.608" y1="91.654" x2="267.621" y2="59.963" gradientUnits="userSpaceOnUse"><stop stop-color="#E2E6EE" stop-opacity=".7"/><stop offset="1" stop-color="#F2F6FE" stop-opacity=".4"/></linearGradient></defs></svg><svg fill="none" viewBox="0 0 160 87" id="55" xmlns="http://www.w3.org/2000/svg"><path fill-rule="evenodd" clip-rule="evenodd" d="M0 0h68.321c4.786 0 8.675 3.849 8.757 8.614v7.738c0 4.847-3.93 8.757-8.757 8.757H9.632v5.844h58.69c4.846 0 8.756 3.93 8.756 8.757v.876H0V24.233c0-4.846 3.93-8.756 8.757-8.756h58.689V9.632H8.756C3.91 9.632 0 5.702 0 .876V0ZM82.922 0h68.321C156.09 0 160 3.93 160 8.757v7.575c0 4.847-3.93 8.756-8.757 8.756H92.554v5.845h58.689c4.847 0 8.757 3.93 8.757 8.757v.875H82.922V24.233c0-4.846 3.93-8.756 8.757-8.756h58.689V9.632h-58.69c-4.846 0-8.756-3.93-8.756-8.756V0ZM0 86.996h68.321c4.786 0 8.675-3.85 8.757-8.614v-7.739c0-4.846-3.93-8.756-8.757-8.756H9.632v-5.845h58.69c4.846 0 8.756-3.93 8.756-8.756v-.876H0v16.353c0 4.846 3.93 8.756 8.757 8.756h58.689v5.844H8.756C3.91 77.364 0 81.294 0 86.12v.876ZM82.922 86.996h68.321c4.847 0 8.757-3.93 8.757-8.757V70.643c0-4.846-3.93-8.756-8.757-8.756H92.554v-5.845h58.689c4.847 0 8.757-3.93 8.757-8.756v-.876H82.922v16.353c0 4.846 3.93 8.756 8.757 8.756h58.689v5.844h-58.69c-4.846 0-8.756 3.93-8.756 8.757v.876Z" fill="#05C3DE"/></svg><svg fill="none" viewBox="0 0 11 8" id="arrow" xmlns="http://www.w3.org/2000/svg"><path d="M.646 4.354a.5.5 0 0 1 0-.708L3.828.464a.5.5 0 1 1 .708.708L1.707 4l2.829 2.828a.5.5 0 1 1-.708.708L.646 4.354ZM11 4.5H1v-1h10v1Z" fill="#05C3DE"/></svg><svg fill="none" viewBox="0 0 24 24" id="download" xmlns="http://www.w3.org/2000/svg"><g clip-path="url(#da)"><path d="M13 13v5.585l1.828-1.828 1.415 1.415L12 22.414l-4.243-4.242 1.415-1.415L11 18.585V13h2ZM12 2a7 7 0 0 1 6.954 6.194 5.5 5.5 0 0 1-.953 10.784L18 17a6 6 0 0 0-11.996-.225L6 17v1.978a5.5 5.5 0 0 1-.954-10.784A7 7 0 0 1 12 2Z" fill="#fff"/></g><defs><clipPath id="da"><path fill="#fff" d="M0 0h24v24H0z"/></clipPath></defs></svg><svg fill="none" viewBox="0 0 15 15" id="enter" xmlns="http://www.w3.org/2000/svg"><g clip-path="url(#ea)"><path d="M2.5 9.375h1.25V12.5h7.5v-10h-7.5v3.125H2.5v-3.75a.625.625 0 0 1 .625-.625h8.75a.625.625 0 0 1 .625.625v11.25a.624.624 0 0 1-.625.625h-8.75a.625.625 0 0 1-.625-.625v-3.75Zm3.75-2.5V5l3.125 2.5L6.25 10V8.125h-5v-1.25h5Z" fill="#fff"/></g><defs><clipPath id="ea"><path fill="#fff" d="M0 0h15v15H0z"/></clipPath></defs></svg><svg fill="none" viewBox="0 0 24 24" id="gift" xmlns="http://www.w3.org/2000/svg"><g clip-path="url(#fa)"><path d="M20 13v7a1 1 0 0 1-1 1H5a1 1 0 0 1-1-1v-7h16ZM14.5 2a3.5 3.5 0 0 1 3.163 5.001L21 7a1 1 0 0 1 1 1v3a1 1 0 0 1-1 1H3a1 1 0 0 1-1-1V8a1 1 0 0 1 1-1l3.337.001a3.5 3.5 0 0 1 5.664-3.95A3.48 3.48 0 0 1 14.5 2Zm-5 2a1.5 1.5 0 0 0-.144 2.993L9.5 7H11V5.5a1.5 1.5 0 0 0-1.356-1.493L9.5 4Zm5 0-.144.007a1.5 1.5 0 0 0-1.35 1.349L13 5.5V7h1.5l.144-.007a1.5 1.5 0 0 0 0-2.986L14.5 4Z" fill="#05C3DE"/></g><defs><clipPath id="fa"><path fill="#fff" d="M0 0h24v24H0z"/></clipPath></defs></svg><svg fill="none" viewBox="0 0 11 11" id="instagramm" xmlns="http://www.w3.org/2000/svg"><path d="M7.736 5.5a2.236 2.236 0 1 1-4.472 0 2.236 2.236 0 0 1 4.472 0Z" fill="#fff"/><path d="M10.73 1.543a2.079 2.079 0 0 0-.502-.771A2.077 2.077 0 0 0 9.457.27C9.22.178 8.865.07 8.21.04 7.504.006 7.291 0 5.501 0 3.708 0 3.495.007 2.788.039c-.654.03-1.01.14-1.246.231a2.076 2.076 0 0 0-.77.502 2.08 2.08 0 0 0-.503.771C.178 1.78.07 2.135.04 2.79.006 3.496 0 3.71 0 5.5s.007 2.004.04 2.711c.029.654.138 1.01.23 1.246.108.291.28.555.502.771.216.223.48.394.771.502.237.092.592.201 1.246.231.707.032.92.039 2.71.039 1.793 0 2.005-.007 2.712-.039.654-.03 1.01-.14 1.246-.231a2.222 2.222 0 0 0 1.273-1.273c.092-.237.201-.592.231-1.246.032-.707.039-.92.039-2.71 0-1.792-.007-2.005-.039-2.712-.03-.654-.14-1.01-.231-1.246ZM5.5 8.945a3.445 3.445 0 1 1 0-6.89 3.445 3.445 0 0 1 0 6.89Zm3.581-6.221a.805.805 0 1 1 0-1.61.805.805 0 0 1 0 1.61Z" fill="#fff"/></svg><svg fill="none" viewBox="0 0 160 23" id="logo" xmlns="http://www.w3.org/2000/svg"><path fill-rule="evenodd" clip-rule="evenodd" d="M0 0h17.836a2.289 2.289 0 0 1 2.286 2.249v2.02a2.286 2.286 0 0 1-2.286 2.286H2.515v1.526h15.321a2.286 2.286 0 0 1 2.286 2.286v.228H0V6.326A2.286 2.286 0 0 1 2.286 4.04h15.322V2.515H2.286A2.286 2.286 0 0 1 0 .229V0ZM21.648 0h17.836a2.286 2.286 0 0 1 2.286 2.286v1.978a2.286 2.286 0 0 1-2.286 2.286H24.163v1.525h15.321a2.286 2.286 0 0 1 2.286 2.287v.228H21.648V6.326a2.286 2.286 0 0 1 2.286-2.286h15.322V2.515H23.934A2.286 2.286 0 0 1 21.648.229V0ZM0 22.711h17.836a2.289 2.289 0 0 0 2.286-2.248v-2.021a2.286 2.286 0 0 0-2.286-2.286H2.515v-1.525h15.321a2.286 2.286 0 0 0 2.286-2.287v-.228H0v4.269a2.286 2.286 0 0 0 2.286 2.286h15.322v1.526H2.286A2.286 2.286 0 0 0 0 22.483v.228ZM21.648 22.711h17.836a2.286 2.286 0 0 0 2.286-2.286v-1.983a2.286 2.286 0 0 0-2.286-2.286H24.163v-1.525h15.321a2.286 2.286 0 0 0 2.286-2.287v-.228H21.648v4.269a2.286 2.286 0 0 0 2.286 2.286h15.322v1.526H23.934a2.286 2.286 0 0 0-2.286 2.286v.228Z" fill="#05C3DE"/><path d="M93.142 5.152a2.516 2.516 0 0 0-2.515 2.514h6.54v9.878a2.516 2.516 0 0 0 2.514-2.515V7.666h4.025a2.516 2.516 0 0 0 2.514-2.514H93.142ZM157.485 15.045h-10.483V7.666h10.483A2.516 2.516 0 0 0 160 5.152h-12.998a2.516 2.516 0 0 0-2.515 2.514v7.38a2.516 2.516 0 0 0 2.515 2.514H160a2.516 2.516 0 0 0-2.515-2.515ZM121.324 7.666v2.414H110.17V5.152a2.516 2.516 0 0 0-2.514 2.514v9.9a2.516 2.516 0 0 0 2.514-2.515V12.6h11.154v4.965a2.521 2.521 0 0 0 2.52-2.515V5.152a2.514 2.514 0 0 0-2.52 2.514ZM139.452 15.045h-10.483v-2.43h8.671a2.52 2.52 0 0 0 2.519-2.514h-11.19V7.666h10.483a2.516 2.516 0 0 0 2.515-2.514h-12.998a2.516 2.516 0 0 0-2.515 2.514v7.38a2.516 2.516 0 0 0 2.515 2.514h12.998a2.516 2.516 0 0 0-2.515-2.515Z" fill="#fff"/><path fill-rule="evenodd" clip-rule="evenodd" d="M58.15 15.486v2.675a2.505 2.505 0 0 0 2.504-2.504v-.17h7.406v.005a2.516 2.516 0 0 0 2.514-2.515V7.023h-.01v-.021h-9.915V4.55A2.504 2.504 0 0 0 58.145 7H48.34v2.505h.006v3.471a2.516 2.516 0 0 0 2.514 2.515v-.006h7.289Zm2.504-2.514h7.406V9.506h-7.406v3.466ZM58.15 9.506v3.466h-7.283V9.506h7.283ZM87.273 5.683l-11.685 7.714v-8.25a2.516 2.516 0 0 0-2.515 2.514v9.899c.516 0 1-.154 1.398-.425l11.84-7.815v8.24a2.516 2.516 0 0 0 2.514-2.515V5.146c-.585 0-1.122.202-1.552.537Z" fill="#fff"/></svg><svg fill="none" viewBox="0 0 15 15" id="map" xmlns="http://www.w3.org/2000/svg"><g clip-path="url(#ja)"><path d="M11.477 10.852 7.5 14.83l-3.978-3.978a5.625 5.625 0 1 1 7.955 0ZM7.5 8.125a1.25 1.25 0 1 0 0-2.5 1.25 1.25 0 0 0 0 2.5Z" fill="#05C3DE"/></g><defs><clipPath id="ja"><path fill="#fff" d="M0 0h15v15H0z"/></clipPath></defs></svg><svg fill="none" viewBox="0 0 15 15" id="map-white" xmlns="http://www.w3.org/2000/svg"><g clip-path="url(#ia)"><path d="M11.477 10.852 7.5 14.83l-3.978-3.978a5.625 5.625 0 1 1 7.955 0ZM7.5 8.125a1.25 1.25 0 1 0 0-2.5 1.25 1.25 0 0 0 0 2.5Z" fill="#fff"/></g><defs><clipPath id="ia"><path fill="#fff" d="M0 0h15v15H0z"/></clipPath></defs></svg><svg fill="none" viewBox="0 0 16 12" id="metro" xmlns="http://www.w3.org/2000/svg"><path fill-rule="evenodd" clip-rule="evenodd" d="M7.172.031a8.34 8.34 0 0 0-2.657.77A7.732 7.732 0 0 0 2.37 2.325C.368 4.32-.437 7.194.231 9.972c.147.615.43 1.36.694 1.834l.109.194h13.934l.157-.319a8.467 8.467 0 0 0 .869-3.382c.077-1.908-.563-3.819-1.79-5.35a10.214 10.214 0 0 0-1.182-1.18A8.229 8.229 0 0 0 8.77.027 10.811 10.811 0 0 0 7.172.03Zm1.535.961a7.008 7.008 0 0 1 4.198 1.94c1.113 1.079 1.803 2.37 2.068 3.874.096.547.12 1.494.05 2.006-.11.791-.275 1.388-.565 2.03l-.088.194H1.687l-.05-.076c-.128-.194-.384-.961-.495-1.48-.144-.677-.191-1.645-.112-2.3a7.168 7.168 0 0 1 1.5-3.58C3.977 1.77 6.357.764 8.707.991ZM5.765 2.219l-1.51 3.778-1.461 3.655-.398.009-.398.008v.62H6.28v-.62l-.416-.009-.416-.008.414-1.15c.228-.634.418-1.161.424-1.173.005-.012.396.643.869 1.454.472.811.866 1.475.875 1.474.01 0 .382-.658.83-1.461.447-.803.82-1.46.83-1.46.012-.001.6 1.614.835 2.293.01.03-.085.038-.412.038H9.69v.622h4.252v-.622h-.734l-1.472-3.771c-.961-2.464-1.487-3.774-1.518-3.78-.033-.006-.353.59-1.103 2.053a170.014 170.014 0 0 1-1.078 2.082c-.01.012-.428-.756-.926-1.705-.5-.95-.994-1.89-1.101-2.09l-.194-.362-.05.125Z" fill="#05C3DE"/></svg><svg fill="none" viewBox="0 0 16 12" id="metro-white" xmlns="http://www.w3.org/2000/svg"><path fill-rule="evenodd" clip-rule="evenodd" d="M7.172.031a8.34 8.34 0 0 0-2.657.77A7.732 7.732 0 0 0 2.37 2.325C.368 4.32-.437 7.194.231 9.972c.147.615.43 1.36.694 1.834l.109.194h13.934l.157-.319a8.467 8.467 0 0 0 .869-3.382c.077-1.908-.563-3.819-1.79-5.35a10.214 10.214 0 0 0-1.182-1.18A8.229 8.229 0 0 0 8.77.027 10.811 10.811 0 0 0 7.172.03Zm1.535.961a7.008 7.008 0 0 1 4.198 1.94c1.113 1.079 1.803 2.37 2.068 3.874.096.547.12 1.494.05 2.006-.11.791-.275 1.388-.565 2.03l-.088.194H1.687l-.05-.076c-.128-.194-.384-.961-.495-1.48-.144-.677-.191-1.645-.112-2.3a7.168 7.168 0 0 1 1.5-3.58C3.977 1.77 6.357.764 8.707.991ZM5.765 2.219l-1.51 3.778-1.461 3.655-.398.009-.398.008v.62H6.28v-.62l-.416-.009-.416-.008.414-1.15c.228-.634.418-1.161.424-1.173.005-.012.396.643.869 1.454.472.811.866 1.475.875 1.474.01 0 .382-.658.83-1.461.447-.803.82-1.46.83-1.46.012-.001.6 1.614.835 2.293.01.03-.085.038-.412.038H9.69v.622h4.252v-.622h-.734l-1.472-3.771c-.961-2.464-1.487-3.774-1.518-3.78-.033-.006-.353.59-1.103 2.053a170.014 170.014 0 0 1-1.078 2.082c-.01.012-.428-.756-.926-1.705-.5-.95-.994-1.89-1.101-2.09l-.194-.362-.05.125Z" fill="#fff"/></svg><svg fill="none" viewBox="0 0 30 30" id="mouse" xmlns="http://www.w3.org/2000/svg"><g clip-path="url(#ma)"><path d="M13.926 2.5h2.148c2.517 0 3.867.348 5.09 1.001a6.815 6.815 0 0 1 2.835 2.835C24.653 7.56 25 8.91 25 11.426v7.148c0 2.517-.348 3.867-1.001 5.09a6.814 6.814 0 0 1-2.835 2.835c-1.223.654-2.573 1.001-5.09 1.001h-2.149c-2.518 0-3.868-.348-5.09-1.001A6.815 6.815 0 0 1 6 23.664c-.652-1.223-1-2.573-1-5.09v-7.149c0-2.518.348-3.868 1.001-5.09a6.815 6.815 0 0 1 2.837-2.834c1.22-.653 2.57-1.001 5.088-1.001Zm-.176 5v6.25h2.5V7.5h-2.5Z" fill="#fff"/></g><defs><clipPath id="ma"><path fill="#fff" d="M0 0h30v30H0z"/></clipPath></defs></svg><svg fill="none" viewBox="0 0 23 20" id="quotation" xmlns="http://www.w3.org/2000/svg"><path d="M17.408 0c-.939 0-1.75.235-2.432.704a4.777 4.777 0 0 0-1.664 1.792c-.427.768-.64 1.515-.64 2.24 0 1.195.405 2.261 1.216 3.2.81.939 1.579 1.387 2.304 1.344-.299 1.45-.81 2.581-1.536 3.392-.768.81-1.707 1.685-2.816 2.624l1.856 3.84c1.621-.853 3.093-2.027 4.416-3.52a18.09 18.09 0 0 0 3.008-4.864c.683-1.707 1.024-3.37 1.024-4.992 0-1.621-.448-2.987-1.344-4.096C19.861.554 18.73 0 17.408 0ZM5.44 0c-.853 0-1.621.235-2.304.704a5.334 5.334 0 0 0-1.728 1.792c-.427.768-.64 1.515-.64 2.24 0 .81.213 1.557.64 2.24.384.683.853 1.237 1.408 1.664.555.427 1.067.64 1.536.64-.299 1.45-.81 2.581-1.536 3.392-.768.81-1.707 1.685-2.816 2.624l1.92 3.84c1.579-.853 3.008-2.027 4.288-3.52a18.09 18.09 0 0 0 3.008-4.864c.683-1.707 1.024-3.37 1.024-4.992 0-1.621-.448-2.987-1.344-4.096C7.957.554 6.806 0 5.44 0Z" fill="#05C3DE"/></svg><svg fill="none" viewBox="0 0 15 15" id="tel" xmlns="http://www.w3.org/2000/svg"><g clip-path="url(#pa)"><path d="M13.125 10.262v2.21a.625.625 0 0 1-.581.624c-.273.019-.497.029-.669.029-5.523 0-10-4.477-10-10 0-.172.01-.396.029-.669a.625.625 0 0 1 .623-.581h2.21a.312.312 0 0 1 .312.281 8.688 8.688 0 0 0 .795 2.846c.06.125.02.274-.092.354l-1.349.964a8.154 8.154 0 0 0 4.278 4.277l.962-1.346a.289.289 0 0 1 .358-.093 8.687 8.687 0 0 0 2.844.793.312.312 0 0 1 .28.311Z" fill="#05C3DE"/></g><defs><clipPath id="pa"><path fill="#fff" d="M0 0h15v15H0z"/></clipPath></defs></svg><svg fill="none" viewBox="0 0 24 24" id="tel-white" xmlns="http://www.w3.org/2000/svg"><g clip-path="url(#oa)"><path d="M21 16.42v3.536a1 1 0 0 1-.93.998c-.437.03-.794.046-1.07.046-8.837 0-16-7.163-16-16 0-.276.015-.633.046-1.07A1 1 0 0 1 4.044 3H7.58a.5.5 0 0 1 .498.45c.023.23.044.413.064.552A13.9 13.9 0 0 0 9.35 8.003c.095.2.033.439-.147.567l-2.158 1.542a13.047 13.047 0 0 0 6.844 6.844l1.54-2.154a.462.462 0 0 1 .573-.149 13.9 13.9 0 0 0 4 1.205c.139.02.322.042.55.064a.5.5 0 0 1 .449.498H21Z" fill="#fff"/></g><defs><clipPath id="oa"><path fill="#fff" d="M0 0h24v24H0z"/></clipPath></defs></svg><svg fill="none" viewBox="0 0 15 15" id="time" xmlns="http://www.w3.org/2000/svg"><g clip-path="url(#ra)"><path d="M7.5 13.75a5.625 5.625 0 1 1 0-11.25 5.625 5.625 0 0 1 0 11.25Zm.625-5.625V5h-1.25v4.375H10v-1.25H8.125ZM1.092 3.926l2.21-2.21.884.885-2.211 2.21-.883-.885Zm10.606-2.21 2.21 2.21-.884.885-2.21-2.21.885-.884Z" fill="#05C3DE"/></g><defs><clipPath id="ra"><path fill="#fff" d="M0 0h15v15H0z"/></clipPath></defs></svg><svg fill="none" viewBox="0 0 15 15" id="time-white" xmlns="http://www.w3.org/2000/svg"><g clip-path="url(#qa)"><path d="M7.5 13.75a5.625 5.625 0 1 1 0-11.25 5.625 5.625 0 0 1 0 11.25Zm.625-5.625V5h-1.25v4.375H10v-1.25H8.125ZM1.092 3.926l2.21-2.21.884.885-2.211 2.21-.883-.885Zm10.606-2.21 2.21 2.21-.884.885-2.21-2.21.885-.884Z" fill="#fff"/></g><defs><clipPath id="qa"><path fill="#fff" d="M0 0h15v15H0z"/></clipPath></defs></svg><svg fill="none" viewBox="0 0 15 15" id="whatsapp" xmlns="http://www.w3.org/2000/svg"><g clip-path="url(#sa)"><path d="m1.253 13.75.845-3.105a6.25 6.25 0 1 1 2.259 2.258l-3.104.847Zm3.991-9.183a.6.6 0 0 0-.231.063.808.808 0 0 0-.184.143c-.075.07-.118.131-.163.19-.231.301-.356.67-.353 1.05 0 .306.08.604.206.883.255.563.676 1.16 1.232 1.713.133.133.264.267.405.392a5.906 5.906 0 0 0 2.4 1.278l.355.055c.116.006.232-.003.348-.008.182-.01.36-.06.52-.145.104-.055.153-.082.24-.137 0 0 .027-.018.078-.056.084-.063.136-.107.206-.18a.717.717 0 0 0 .131-.19c.05-.101.098-.296.118-.457.015-.124.01-.192.009-.233-.003-.067-.059-.137-.12-.166l-.363-.163s-.544-.237-.875-.388a.311.311 0 0 0-.111-.026.301.301 0 0 0-.236.08v-.002c-.003 0-.045.036-.497.583a.219.219 0 0 1-.23.082.884.884 0 0 1-.12-.042c-.077-.032-.104-.045-.157-.068l-.003-.001a3.756 3.756 0 0 1-.981-.625c-.08-.069-.152-.144-.227-.216a3.935 3.935 0 0 1-.638-.793l-.037-.06a.577.577 0 0 1-.063-.127c-.024-.092.038-.166.038-.166s.152-.166.222-.256c.059-.075.114-.153.165-.233.073-.12.096-.241.058-.335a52.02 52.02 0 0 0-.543-1.276c-.037-.084-.146-.144-.245-.156a2.774 2.774 0 0 0-.102-.01 2.117 2.117 0 0 0-.252.003Z" fill="#fff"/></g><defs><clipPath id="sa"><path fill="#fff" d="M0 0h15v15H0z"/></clipPath></defs></svg></svg>