<svg width="255" height="139" viewBox="0 0 255 139" fill="none" xmlns="http://www.w3.org/2000/svg">
<path fill-rule="evenodd" clip-rule="evenodd" d="M0 0H108.887C116.514 0 122.713 6.13402 122.843 13.7285V25.6071V26.0615C122.843 33.7858 116.579 40.0172 108.887 40.0172H15.3513V49.3318H108.887C116.611 49.3318 122.843 55.5956 122.843 63.2875V64.6831H0V52.1229V49.3318V40.0172V38.8488V38.6216C0 30.8973 6.26384 24.6659 13.9557 24.6659H107.491V15.3513H13.9557C6.23138 15.3513 0 9.08743 0 1.39557V0Z" fill="url(#paint0_linear_210_42)"/>
<path fill-rule="evenodd" clip-rule="evenodd" d="M132.157 0.00012207H241.044C248.769 0.00012207 255 6.26396 255 13.9558V25.5748V26.0291C255 33.7534 248.736 39.9848 241.044 39.9848H147.509V49.2994H241.044C248.769 49.2994 255 55.5633 255 63.2552V64.6507H132.157V52.0906V49.2994V40.0173V38.8489V38.6217C132.157 30.8974 138.421 24.666 146.113 24.666H239.649V15.3514H146.113C138.389 15.3514 132.157 9.08756 132.157 1.39569V0.00012207Z" fill="url(#paint1_linear_210_42)"/>
<path fill-rule="evenodd" clip-rule="evenodd" d="M0 138.648H108.887C116.514 138.648 122.713 132.514 122.843 124.92V113.041V112.587C122.843 104.863 116.579 98.6312 108.887 98.6312H15.3513V89.3166H108.887C116.611 89.3166 122.843 83.0528 122.843 75.3609V73.9653H0V86.5255V89.3166V98.6312V99.7996V100.027C0 107.751 6.26384 113.982 13.9557 113.982H107.491V123.297H13.9557C6.23138 123.297 0 129.561 0 137.253V138.648Z" fill="url(#paint2_linear_210_42)"/>
<path fill-rule="evenodd" clip-rule="evenodd" d="M132.157 138.648H241.044C248.769 138.648 255 132.385 255 124.693V123.297V113.982V112.587C255 104.863 248.736 98.6312 241.044 98.6312H147.509V89.3166H241.044C248.769 89.3166 255 83.0528 255 75.3609V73.9653H132.157V86.5255V89.3166V98.6312V99.7996V100.027C132.157 107.751 138.421 113.982 146.113 113.982H239.649V123.297H146.113C138.389 123.297 132.157 129.561 132.157 137.253V138.648Z" fill="url(#paint3_linear_210_42)"/>
<defs>
<linearGradient id="paint0_linear_210_42" x1="-17.5489" y1="17.6885" x2="135.464" y2="-14.0022" gradientUnits="userSpaceOnUse">
<stop stop-color="#E2E6EE" stop-opacity="0.7"/>
<stop offset="1" stop-color="#F2F6FE" stop-opacity="0.4"/>
</linearGradient>
<linearGradient id="paint1_linear_210_42" x1="114.608" y1="17.6797" x2="267.615" y2="-14.0256" gradientUnits="userSpaceOnUse">
<stop stop-color="#E2E6EE" stop-opacity="0.7"/>
<stop offset="1" stop-color="#F2F6FE" stop-opacity="0.4"/>
</linearGradient>
<linearGradient id="paint2_linear_210_42" x1="-17.5489" y1="91.6538" x2="135.464" y2="59.9631" gradientUnits="userSpaceOnUse">
<stop stop-color="#E2E6EE" stop-opacity="0.7"/>
<stop offset="1" stop-color="#F2F6FE" stop-opacity="0.4"/>
</linearGradient>
<linearGradient id="paint3_linear_210_42" x1="114.608" y1="91.6538" x2="267.621" y2="59.9631" gradientUnits="userSpaceOnUse">
<stop stop-color="#E2E6EE" stop-opacity="0.7"/>
<stop offset="1" stop-color="#F2F6FE" stop-opacity="0.4"/>
</linearGradient>
</defs>
</svg>
