<svg width="160" height="87" viewBox="0 0 160 87" fill="none" xmlns="http://www.w3.org/2000/svg">
<path fill-rule="evenodd" clip-rule="evenodd" d="M0 0H68.3213C73.1068 0 76.9963 3.8488 77.0778 8.61398V16.0672V16.3523C77.0778 21.1989 73.1475 25.1088 68.3213 25.1088H9.63218V30.9533H68.3213C73.1679 30.9533 77.0778 34.8836 77.0778 39.7098V40.5855H0V32.7046V30.9533V25.1088V24.3757V24.2332C0 19.3865 3.93025 15.4767 8.75653 15.4767H67.4456V9.63218H8.75653C3.90989 9.63218 0 5.70192 0 0.875652V0Z" fill="#05C3DE"/>
<path fill-rule="evenodd" clip-rule="evenodd" d="M82.9222 0H151.243C156.09 0 160 3.93025 160 8.75653V16.0468V16.3319C160 21.1786 156.07 25.0885 151.243 25.0885H92.5544V30.9329H151.243C156.09 30.9329 160 34.8632 160 39.6895V40.5651H82.9222V32.6842V30.9329V25.1088V24.3757V24.2332C82.9222 19.3865 86.8524 15.4767 91.6787 15.4767H150.368V9.63218H91.6787C86.8321 9.63218 82.9222 5.70192 82.9222 0.875652V0Z" fill="#05C3DE"/>
<path fill-rule="evenodd" clip-rule="evenodd" d="M0 86.9956H68.3213C73.1068 86.9956 76.9963 83.1468 77.0778 78.3817V70.9284V70.6433C77.0778 65.7967 73.1475 61.8868 68.3213 61.8868H9.63218V56.0423H68.3213C73.1679 56.0423 77.0778 52.1121 77.0778 47.2858V46.4102H0V54.291V56.0423V61.8868V62.6199V62.7625C0 67.6091 3.93025 71.519 8.75653 71.519H67.4456V77.3635H8.75653C3.90989 77.3635 0 81.2937 0 86.12V86.9956Z" fill="#05C3DE"/>
<path fill-rule="evenodd" clip-rule="evenodd" d="M82.9222 86.9956H151.243C156.09 86.9956 160 83.0654 160 78.2391V77.3635V71.519V70.6433C160 65.7967 156.07 61.8868 151.243 61.8868H92.5544V56.0423H151.243C156.09 56.0423 160 52.1121 160 47.2858V46.4102H82.9222V54.291V56.0423V61.8868V62.6199V62.7625C82.9222 67.6091 86.8524 71.519 91.6787 71.519H150.368V77.3635H91.6787C86.8321 77.3635 82.9222 81.2937 82.9222 86.12V86.9956Z" fill="#05C3DE"/>
</svg>
