<svg width="15" height="15" viewBox="0 0 15 15" fill="none" xmlns="http://www.w3.org/2000/svg">
<g clip-path="url(#clip0_210_109)">
<path d="M2.5 9.375H3.75V12.5H11.25V2.5H3.75V5.625H2.5V1.875C2.5 1.70924 2.56585 1.55027 2.68306 1.43306C2.80027 1.31585 2.95924 1.25 3.125 1.25H11.875C12.0408 1.25 12.1997 1.31585 12.3169 1.43306C12.4342 1.55027 12.5 1.70924 12.5 1.875V13.125C12.5 13.2908 12.4342 13.4497 12.3169 13.5669C12.1997 13.6842 12.0408 13.75 11.875 13.75H3.125C2.95924 13.75 2.80027 13.6842 2.68306 13.5669C2.56585 13.4497 2.5 13.2908 2.5 13.125V9.375ZM6.25 6.875V5L9.375 7.5L6.25 10V8.125H1.25V6.875H6.25Z" fill="white"/>
</g>
<defs>
<clipPath id="clip0_210_109">
<rect width="15" height="15" fill="white"/>
</clipPath>
</defs>
</svg>
