<svg width="11" height="11" viewBox="0 0 11 11" fill="none" xmlns="http://www.w3.org/2000/svg">
<path d="M7.73638 5.4999C7.73638 6.73498 6.73519 7.73616 5.50012 7.73616C4.26504 7.73616 3.26385 6.73498 3.26385 5.4999C3.26385 4.26482 4.26504 3.26364 5.50012 3.26364C6.73519 3.26364 7.73638 4.26482 7.73638 5.4999Z" fill="white"/>
<path d="M10.7299 1.54331C10.6224 1.25201 10.4509 0.988347 10.2281 0.771924C10.0117 0.549082 9.74817 0.377583 9.45669 0.270084C9.2203 0.178273 8.86518 0.0689918 8.21109 0.0392201C7.50353 0.00695267 7.29138 0 5.50009 0C3.70862 0 3.49648 0.0067744 2.78909 0.0390419C2.135 0.0689918 1.7797 0.178273 1.54349 0.270084C1.25201 0.377583 0.988347 0.549082 0.772102 0.771924C0.54926 0.988347 0.377761 1.25184 0.270084 1.54331C0.178273 1.7797 0.0689918 2.135 0.0392201 2.78909C0.00695267 3.49648 0 3.70862 0 5.50009C0 7.29138 0.00695267 7.50353 0.0392201 8.21109C0.0689918 8.86518 0.178273 9.2203 0.270084 9.45669C0.377761 9.74817 0.549082 10.0117 0.771924 10.2281C0.988347 10.4509 1.25184 10.6224 1.54331 10.7299C1.7797 10.8219 2.135 10.9312 2.78909 10.961C3.49648 10.9932 3.70844 11 5.49991 11C7.29156 11 7.5037 10.9932 8.21091 10.961C8.865 10.9312 9.2203 10.8219 9.45669 10.7299C10.0418 10.5042 10.5042 10.0418 10.7299 9.45669C10.8217 9.2203 10.931 8.86518 10.961 8.21109C10.9932 7.50353 11 7.29138 11 5.50009C11 3.70862 10.9932 3.49648 10.961 2.78909C10.9312 2.135 10.8219 1.7797 10.7299 1.54331ZM5.50009 8.94487C3.59738 8.94487 2.05496 7.40262 2.05496 5.49991C2.05496 3.5972 3.59738 2.05496 5.50009 2.05496C7.40262 2.05496 8.94504 3.5972 8.94504 5.49991C8.94504 7.40262 7.40262 8.94487 5.50009 8.94487ZM9.08124 2.72384C8.63663 2.72384 8.27616 2.36337 8.27616 1.91876C8.27616 1.47414 8.63663 1.11367 9.08124 1.11367C9.52586 1.11367 9.88633 1.47414 9.88633 1.91876C9.88615 2.36337 9.52586 2.72384 9.08124 2.72384Z" fill="white"/>
</svg>
