<svg width="160" height="23" viewBox="0 0 160 23" fill="none" xmlns="http://www.w3.org/2000/svg">
<path fill-rule="evenodd" clip-rule="evenodd" d="M0 0H17.8363C19.0856 0 20.101 1.00478 20.1223 2.2488V4.19458V4.26901C20.1223 5.53429 19.0962 6.55503 17.8363 6.55503H2.51462V8.08081H17.8363C19.1015 8.08081 20.1223 9.10686 20.1223 10.3668V10.5954H0V8.53801V8.08081V6.55503V6.36364V6.32642C0 5.06114 1.02605 4.0404 2.28602 4.0404H17.6077V2.51462H2.28602C1.02073 2.51462 0 1.48857 0 0.228602V0Z" fill="#05C3DE"/>
<path fill-rule="evenodd" clip-rule="evenodd" d="M21.6481 0H39.4843C40.7496 0 41.7703 1.02605 41.7703 2.28602V4.18926V4.26369C41.7703 5.52897 40.7443 6.54971 39.4843 6.54971H24.1627V8.07549H39.4843C40.7496 8.07549 41.7703 9.10154 41.7703 10.3615V10.5901H21.6481V8.5327V8.07549V6.55502V6.36364V6.32642C21.6481 5.06114 22.6741 4.0404 23.9341 4.0404H39.2557V2.51462H23.9341C22.6688 2.51462 21.6481 1.48857 21.6481 0.228602V0Z" fill="#05C3DE"/>
<path fill-rule="evenodd" clip-rule="evenodd" d="M0 22.7113H17.8363C19.0856 22.7113 20.101 21.7065 20.1223 20.4625V18.5168V18.4423C20.1223 17.177 19.0962 16.1563 17.8363 16.1563H2.51462V14.6305H17.8363C19.1015 14.6305 20.1223 13.6045 20.1223 12.3445V12.1159H0V14.1733V14.6305V16.1563V16.3477V16.3849C0 17.6502 1.02605 18.6709 2.28602 18.6709H17.6077V20.1967H2.28602C1.02073 20.1967 0 21.2228 0 22.4827V22.7113Z" fill="#05C3DE"/>
<path fill-rule="evenodd" clip-rule="evenodd" d="M21.6481 22.7113H39.4843C40.7496 22.7113 41.7703 21.6853 41.7703 20.4253V20.1967V18.6709V18.4423C41.7703 17.177 40.7443 16.1563 39.4843 16.1563H24.1627V14.6305H39.4843C40.7496 14.6305 41.7703 13.6045 41.7703 12.3445V12.1159H21.6481V14.1733V14.6305V16.1563V16.3477V16.3849C21.6481 17.6502 22.6741 18.6709 23.9341 18.6709H39.2557V20.1967H23.9341C22.6688 20.1967 21.6481 21.2228 21.6481 22.4827V22.7113Z" fill="#05C3DE"/>
<path d="M93.1421 5.15152C91.7545 5.15152 90.6274 6.27858 90.6274 7.66614H97.1665V17.5439C98.5541 17.5439 99.6811 16.4168 99.6811 15.0292V7.66614H103.706C105.093 7.66614 106.22 6.53908 106.22 5.15152H93.1421Z" fill="white"/>
<path d="M157.485 15.0452H147.002V7.66614H157.485C158.873 7.66614 160 6.53908 160 5.15152H147.002C145.614 5.15152 144.487 6.27858 144.487 7.66614V15.0452C144.487 16.4328 145.614 17.5598 147.002 17.5598H160C160 16.1723 158.873 15.0452 157.485 15.0452Z" fill="white"/>
<path d="M121.324 7.66614V10.0797H110.17V5.15152C108.783 5.15152 107.656 6.27858 107.656 7.66614V17.5651C109.043 17.5651 110.17 16.4381 110.17 15.0505V12.5997H121.324V17.5651C122.711 17.5651 123.844 16.4381 123.844 15.0505V5.15152C122.451 5.15152 121.324 6.27326 121.324 7.66614Z" fill="white"/>
<path d="M139.452 15.0452H128.969V12.6156H137.64C139.027 12.6156 140.159 11.4886 140.159 10.101H128.969V7.66614H139.452C140.84 7.66614 141.967 6.53908 141.967 5.15152H128.969C127.581 5.15152 126.454 6.27858 126.454 7.66614V15.0452C126.454 16.4328 127.581 17.5598 128.969 17.5598H141.967C141.967 16.1723 140.84 15.0452 139.452 15.0452Z" fill="white"/>
<path fill-rule="evenodd" clip-rule="evenodd" d="M58.15 15.4865V18.1606C59.5323 18.1606 60.654 17.0388 60.654 15.6566V15.4865H68.0597V15.4918C69.4472 15.4918 70.5743 14.3647 70.5743 12.9771V7.02287H70.5637V7.00161H60.6487V4.55078C59.2824 4.55078 58.1713 5.64594 58.1447 7.00161H48.3414V9.50559H48.3467V12.9771C48.3467 14.3647 49.4738 15.4918 50.8614 15.4918V15.4865H58.15ZM60.654 12.9718H68.0597V9.50559H60.654V12.9718ZM58.15 9.50559V12.9718H50.8667V9.50559H58.15Z" fill="white"/>
<path fill-rule="evenodd" clip-rule="evenodd" d="M87.2728 5.68316L75.5875 13.3971V5.14621C74.1999 5.14621 73.0729 6.27327 73.0729 7.66083V17.5598C73.5886 17.5598 74.0723 17.4056 74.4711 17.1345L86.3105 9.31952V17.5598C87.6981 17.5598 88.8251 16.4328 88.8251 15.0452V5.14621C88.2403 5.14621 87.7034 5.34823 87.2728 5.68316Z" fill="white"/>
</svg>
