<svg width="16" height="12" viewBox="0 0 16 12" fill="none" xmlns="http://www.w3.org/2000/svg">
<path fill-rule="evenodd" clip-rule="evenodd" d="M7.17215 0.031305C6.32577 0.11587 5.31774 0.407571 4.5145 0.800352C3.68679 1.20514 3.02325 1.67748 2.37138 2.326C0.367518 4.31961 -0.437404 7.19414 0.230415 9.97184C0.378242 10.5867 0.660703 11.3323 0.925092 11.8056L1.03368 12H8.00099H14.9683L15.1249 11.6812C15.6502 10.6114 15.9471 9.45599 15.9938 8.29892C16.0708 6.39066 15.4313 4.48034 14.2031 2.94947C13.941 2.62287 13.352 2.03362 13.0222 1.76829C11.8302 0.808967 10.2773 0.173501 8.76911 0.0278217C8.37059 -0.010682 7.57505 -0.00894029 7.17215 0.031305ZM8.70658 0.991999C10.285 1.14465 11.7702 1.83071 12.9052 2.93149C14.0183 4.0109 14.7078 5.30288 14.973 6.80605C15.0695 7.35288 15.0929 8.29979 15.0225 8.8121C14.9139 9.60316 14.7481 10.1995 14.4583 10.8415L14.3705 11.0359H8.02841H1.68633L1.63665 10.9604C1.50843 10.7658 1.25158 9.99865 1.1412 9.48078C0.996785 8.80305 0.949542 7.83514 1.02886 7.17927C1.18592 5.88087 1.70619 4.63936 2.52909 3.59933C3.97691 1.76951 6.35734 0.764803 8.70658 0.991999ZM5.76475 2.21858C5.73733 2.287 5.05766 3.98748 4.25437 5.99741L2.79385 9.65184L2.39571 9.66055L1.99756 9.66925V9.97934V10.2894H4.13931H6.28106V9.97927V9.66913L5.86524 9.66048L5.44946 9.65184L5.86324 8.50108C6.09083 7.86817 6.28146 7.34078 6.28687 7.32908C6.29228 7.31739 6.68333 7.9717 7.15592 8.78308C7.62848 9.59445 8.02244 10.2578 8.03138 10.2571C8.04029 10.2564 8.41342 9.59878 8.86053 8.79564C9.30764 7.99251 9.68112 7.33527 9.6905 7.33509C9.70288 7.33487 10.2918 8.95044 10.5265 9.62851C10.5368 9.65837 10.4412 9.66739 10.1145 9.66739H9.68909V9.9784V10.2894H11.8152H13.9413V9.9784V9.66739L13.5739 9.66695L13.2066 9.66652L11.7352 5.89599C10.7737 3.43194 10.2478 2.12235 10.2174 2.11654C10.1844 2.11022 9.86362 2.70681 9.1136 4.16914C8.53208 5.30298 8.04729 6.24 8.03632 6.25139C8.02531 6.26277 7.60831 5.49518 7.10961 4.54569C6.61092 3.59616 6.11553 2.65612 6.00876 2.45672L5.81462 2.09417L5.76475 2.21858Z" fill="white"/>
</svg>
