<svg width="30" height="30" viewBox="0 0 30 30" fill="none" xmlns="http://www.w3.org/2000/svg">
<g clip-path="url(#clip0_113_342)">
<path d="M13.9262 2.5H16.0738C18.5913 2.5 19.9412 2.8475 21.1637 3.50125C22.3716 4.14061 23.3594 5.12836 23.9987 6.33625C24.6525 7.55875 25 8.90875 25 11.4262V18.5737C25 21.0912 24.6525 22.4412 23.9987 23.6637C23.3594 24.8716 22.3716 25.8594 21.1637 26.4987C19.9412 27.1525 18.5913 27.5 16.0738 27.5H13.925C11.4075 27.5 10.0575 27.1525 8.835 26.4987C7.62711 25.8594 6.63936 24.8716 6 23.6637C5.3475 22.4412 5 21.0912 5 18.5737V11.425C5 8.9075 5.3475 7.5575 6.00125 6.335C6.64114 5.1274 7.62933 4.14008 8.8375 3.50125C10.0588 2.8475 11.4087 2.5 13.9262 2.5ZM13.75 7.5V13.75H16.25V7.5H13.75Z" fill="white"/>
</g>
<defs>
<clipPath id="clip0_113_342">
<rect width="30" height="30" fill="white"/>
</clipPath>
</defs>
</svg>
