<svg width="23" height="20" viewBox="0 0 23 20" fill="none" xmlns="http://www.w3.org/2000/svg">
<path d="M17.408 -1.56728e-05C16.4694 -1.57549e-05 15.6587 0.234651 14.976 0.703985C14.2507 1.17332 13.696 1.77065 13.312 2.49598C12.8854 3.26398 12.672 4.01065 12.672 4.73598C12.672 5.93065 13.0774 6.99732 13.888 7.93598C14.6987 8.87465 15.4667 9.32265 16.192 9.27998C15.8934 10.7307 15.3814 11.8613 14.656 12.672C13.888 13.4827 12.9494 14.3573 11.84 15.296L13.696 19.136C15.3174 18.2827 16.7894 17.1093 18.112 15.616C19.392 14.1227 20.3947 12.5013 21.12 10.752C21.8027 9.04532 22.144 7.38132 22.144 5.75999C22.144 4.13865 21.696 2.77332 20.8 1.66398C19.8614 0.554651 18.7307 -1.55572e-05 17.408 -1.56728e-05ZM5.44004 -1.67191e-05C4.58671 -1.67937e-05 3.81871 0.23465 3.13604 0.703984C2.41071 1.17332 1.83471 1.77065 1.40804 2.49598C0.981376 3.26398 0.768043 4.01065 0.768043 4.73598C0.768043 5.54665 0.981376 6.29332 1.40804 6.97598C1.79204 7.65865 2.26138 8.21332 2.81604 8.63998C3.37071 9.06665 3.88271 9.27998 4.35204 9.27998C4.05338 10.7307 3.54137 11.8613 2.81604 12.672C2.04804 13.4827 1.10938 14.3573 4.22974e-05 15.296L1.92004 19.136C3.49871 18.2827 4.92804 17.1093 6.20804 15.616C7.48804 14.1227 8.49071 12.5013 9.21604 10.752C9.89871 9.04532 10.24 7.38132 10.24 5.75999C10.24 4.13865 9.79204 2.77332 8.89604 1.66398C7.95738 0.55465 6.80538 -1.65997e-05 5.44004 -1.67191e-05Z" fill="#05C3DE"/>
</svg>
