<svg width="15" height="15" viewBox="0 0 15 15" fill="none" xmlns="http://www.w3.org/2000/svg">
<g clip-path="url(#clip0_141_479)">
<path d="M7.50004 13.7499C6.76136 13.7499 6.02991 13.6044 5.34745 13.3217C4.66499 13.0391 4.0449 12.6247 3.52257 12.1024C3.00024 11.5801 2.5859 10.96 2.30322 10.2775C2.02054 9.59506 1.87504 8.86361 1.87504 8.12492C1.87504 7.38624 2.02054 6.65478 2.30322 5.97233C2.5859 5.28987 3.00024 4.66978 3.52257 4.14745C4.0449 3.62512 4.66499 3.21078 5.34745 2.9281C6.02991 2.64542 6.76136 2.49992 7.50004 2.49992C8.99189 2.49992 10.4226 3.09255 11.4775 4.14745C12.5324 5.20234 13.125 6.63308 13.125 8.12492C13.125 9.61676 12.5324 11.0475 11.4775 12.1024C10.4226 13.1573 8.99189 13.7499 7.50004 13.7499ZM8.12504 8.12492V4.99992H6.87504V9.37492H10V8.12492H8.12504ZM1.09192 3.92617L3.30129 1.7168L4.18567 2.60055L1.97504 4.81055L1.09192 3.92617ZM11.6982 1.7168L13.9082 3.92617L13.0244 4.81055L10.8144 2.60055L11.6988 1.7168H11.6982Z" fill="white"/>
</g>
<defs>
<clipPath id="clip0_141_479">
<rect width="15" height="15" fill="white"/>
</clipPath>
</defs>
</svg>
