<svg width="15" height="15" viewBox="0 0 15 15" fill="none" xmlns="http://www.w3.org/2000/svg">
<g clip-path="url(#clip0_210_108)">
<path d="M7.50004 13.75C6.76136 13.75 6.02991 13.6045 5.34745 13.3218C4.66499 13.0392 4.0449 12.6248 3.52257 12.1025C3.00024 11.5802 2.5859 10.9601 2.30322 10.2776C2.02054 9.59515 1.87504 8.8637 1.87504 8.12501C1.87504 7.38633 2.02054 6.65488 2.30322 5.97242C2.5859 5.28996 3.00024 4.66987 3.52257 4.14754C4.0449 3.62521 4.66499 3.21087 5.34745 2.92819C6.02991 2.64551 6.76136 2.50001 7.50004 2.50001C8.99189 2.50001 10.4226 3.09265 11.4775 4.14754C12.5324 5.20243 13.125 6.63317 13.125 8.12501C13.125 9.61686 12.5324 11.0476 11.4775 12.1025C10.4226 13.1574 8.99189 13.75 7.50004 13.75ZM8.12504 8.12501V5.00001H6.87504V9.37501H10V8.12501H8.12504ZM1.09192 3.92626L3.30129 1.71689L4.18567 2.60064L1.97504 4.81064L1.09192 3.92626ZM11.6982 1.71689L13.9082 3.92626L13.0244 4.81064L10.8144 2.60064L11.6988 1.71689H11.6982Z" fill="#05C3DE"/>
</g>
<defs>
<clipPath id="clip0_210_108">
<rect width="15" height="15" fill="white"/>
</clipPath>
</defs>
</svg>
