<svg width="15" height="15" viewBox="0 0 15 15" fill="none" xmlns="http://www.w3.org/2000/svg">
<g clip-path="url(#clip0_141_577)">
<path d="M1.25251 13.75L2.09751 10.645C1.54072 9.69053 1.24819 8.605 1.25001 7.5C1.25001 4.04813 4.04813 1.25 7.50001 1.25C10.9519 1.25 13.75 4.04813 13.75 7.5C13.75 10.9519 10.9519 13.75 7.50001 13.75C6.39549 13.7518 5.31042 13.4595 4.35626 12.9031L1.25251 13.75ZM5.24438 4.5675C5.16367 4.57251 5.0848 4.59377 5.01251 4.63C4.94471 4.66839 4.88282 4.71639 4.82876 4.7725C4.75376 4.84313 4.71126 4.90437 4.66563 4.96375C4.43464 5.26437 4.31039 5.63339 4.31251 6.0125C4.31376 6.31875 4.39376 6.61688 4.51876 6.89563C4.77438 7.45937 5.19501 8.05625 5.75063 8.60938C5.88438 8.7425 6.01501 8.87625 6.15563 9.00063C6.84525 9.60779 7.66704 10.0456 8.55563 10.2794L8.91126 10.3337C9.02688 10.34 9.14251 10.3313 9.25876 10.3256C9.44078 10.3162 9.61852 10.2669 9.77938 10.1813C9.88313 10.1263 9.93188 10.0988 10.0188 10.0437C10.0188 10.0437 10.0456 10.0262 10.0969 9.9875C10.1813 9.925 10.2331 9.88062 10.3031 9.8075C10.355 9.75375 10.4 9.69063 10.4344 9.61875C10.4831 9.51688 10.5319 9.3225 10.5519 9.16062C10.5669 9.03687 10.5625 8.96938 10.5606 8.9275C10.5581 8.86063 10.5025 8.79125 10.4419 8.76188L10.0781 8.59875C10.0781 8.59875 9.53438 8.36188 9.20251 8.21063C9.16752 8.19537 9.13002 8.18669 9.09188 8.185C9.04912 8.18061 9.00591 8.18542 8.96517 8.19911C8.92442 8.2128 8.88707 8.23505 8.85563 8.26437V8.26312C8.85251 8.26312 8.81063 8.29875 8.35876 8.84625C8.33282 8.8811 8.2971 8.90744 8.25613 8.92191C8.21517 8.93638 8.17083 8.93833 8.12876 8.9275C8.08803 8.91661 8.04814 8.90283 8.00938 8.88625C7.93188 8.85375 7.90501 8.84125 7.85188 8.81813L7.84876 8.81688C7.4912 8.66077 7.16015 8.4499 6.86751 8.19188C6.78876 8.12313 6.71563 8.04812 6.64063 7.97563C6.39474 7.74015 6.18045 7.47376 6.00313 7.18313L5.96626 7.12375C5.93977 7.08385 5.91836 7.04081 5.90251 6.99563C5.87876 6.90375 5.94063 6.83 5.94063 6.83C5.94063 6.83 6.09251 6.66375 6.16313 6.57375C6.22194 6.49895 6.2768 6.42114 6.32751 6.34063C6.40126 6.22188 6.42438 6.1 6.38563 6.00563C6.21063 5.57812 6.02938 5.1525 5.84313 4.73C5.80626 4.64625 5.69688 4.58625 5.59751 4.57437C5.56376 4.57062 5.53001 4.56687 5.49626 4.56437C5.41232 4.5602 5.32822 4.56104 5.24438 4.56687V4.5675Z" fill="white"/>
</g>
<defs>
<clipPath id="clip0_141_577">
<rect width="15" height="15" fill="white"/>
</clipPath>
</defs>
</svg>
